#N canvas 0 0 925 1132 10;
#X declare -lib xlab;
#X obj 102 162 dac~;
#X msg 44 42 open sciarrino-6-capricci.wav \, 1;
#X obj 220 130 declare -lib xlab;
#X obj 28 403 bng 18 250 50 0 empty empty empty 0 -9 0 10 #fcfcfc #000000 #000000;
#X obj 121 427 nbx 5 16 -1e+37 1e+37 0 0 empty empty empty 0 -9 0 10 #fcfcfc #000000 #000000 0 256;
#X obj 28 426 cyclone/click~;
#X obj 28 448 dac~;
#X obj 28 134 +~;
#X obj 25 99 readsf~ 2;
#X obj 28 381 onsetsds~ 512 10;
#X msg 103 266 set floor 0.3;
#X msg 139 308 set threshold 0.25;
#X msg 26 16 open widmann-sciarrino-capricci-no1.wav \, 1;
#X obj 28 156 *~ 3;
#X msg 54 69 open ferneyhough-casandra.wav \, 1;
#X msg 119 288 set relaxtime 0.05;
#X connect 1 0 8 0;
#X connect 3 0 5 0;
#X connect 5 0 6 0;
#X connect 7 0 13 0;
#X connect 8 0 0 0;
#X connect 8 0 7 0;
#X connect 8 1 7 1;
#X connect 8 1 0 1;
#X connect 9 0 3 0;
#X connect 9 1 4 0;
#X connect 10 0 9 0;
#X connect 11 0 9 0;
#X connect 12 0 8 0;
#X connect 13 0 9 0;
#X connect 14 0 8 0;
#X connect 15 0 9 0;
